<svg width="680" height="680" viewBox="0 0 680 680" fill="none" xmlns="http://www.w3.org/2000/svg">
    <path d="M377.984 569.638H377.692C236.718 569.55 122.634 467.052 122.634 340.699C122.634 214.346 236.816 111.848 377.692 111.76H377.984C378.276 111.76 378.666 111.76 379.055 111.76V0C357.622 0 336.091 1.66024 314.95 4.89334V70.1671C277.052 77.2449 240.908 90.7016 208.66 109.838L157.707 64.0504C123.608 86.0704 93.8939 112.984 69.6352 143.742L120.393 189.268C99.0574 218.278 84.1515 250.609 76.3575 284.6H5.04275C-1.77697 321.737 -1.67954 359.661 5.33502 396.798H76.3575C84.2489 430.789 99.0574 463.12 120.393 492.043L70.1223 537.044C94.4785 567.715 124.29 594.541 158.486 616.474L208.757 571.385C241.102 590.522 277.149 603.978 315.048 611.056V675.107C336.189 678.427 357.622 680 379.153 680V569.55C378.666 569.55 378.373 569.55 377.984 569.638Z"
          fill="#6E6E6E"/>
    <path d="M354.505 603.628C534.253 603.628 680 489.858 680 349.524C680 209.19 534.253 95.5068 354.505 95.5068C352.654 95.5068 350.803 95.5942 348.952 95.5942C494.796 99.5264 611.608 211.462 611.608 349.174C611.608 489.334 490.509 602.929 341.158 602.929"
          fill="#6E6E6E"/>
    <path d="M400.781 456.92C394.935 457.881 389.187 458.493 383.244 458.755C383.244 460.415 383.342 462.163 383.342 463.823C383.634 478.765 383.634 493.882 383.634 508.649C383.634 513.805 383.634 518.174 383.634 523.242C395.812 522.718 407.795 521.407 419.779 519.222C418.22 514.242 416.856 509.873 415.297 504.805C410.913 490.561 406.431 475.881 402.145 461.551C401.658 460.065 401.268 458.493 400.781 456.92ZM426.501 454.997C431.859 469.153 437.12 483.484 442.186 497.639C443.94 502.62 445.499 506.989 447.252 511.882C457.969 508.125 468.101 503.669 478.038 498.513C474.823 494.144 471.998 490.387 468.686 485.843C459.625 473.522 450.467 460.677 441.504 448.182C440.627 446.958 439.751 445.56 438.776 444.337C434.197 446.609 429.521 448.618 424.65 450.453C425.332 451.852 425.916 453.512 426.501 454.997ZM462.548 435.337C472.388 447.308 482.325 459.628 491.97 471.6C495.38 475.881 498.303 479.464 501.518 483.746C509.409 477.891 516.716 471.6 523.633 464.871C519.346 461.813 515.449 458.842 511.163 455.696C504.83 451.065 498.595 446.347 492.165 441.628C485.735 436.909 479.11 431.841 472.68 426.948C471.219 425.812 469.757 424.763 468.393 423.627C465.568 426.336 462.548 428.958 459.43 431.404C460.405 432.715 461.476 434.113 462.548 435.337ZM533.96 365.956C525.582 365.869 517.008 365.781 508.532 365.606C505.902 365.519 503.174 365.519 500.543 365.432C500.349 367.179 500.251 368.839 499.959 370.587C502.492 371.111 505.025 371.636 507.558 372.247C515.742 373.995 524.218 375.83 532.304 377.665C540.39 379.5 548.281 381.248 556.173 383.083C561.044 384.219 565.428 385.267 570.202 386.403C571.371 379.587 572.15 372.859 572.638 365.956C567.961 366.043 563.577 365.956 558.803 365.956C550.522 366.043 542.241 366.043 533.96 365.956ZM321.282 454.473C322.159 452.463 323.036 450.279 323.913 448.269C317.775 445.648 312.027 442.677 306.376 439.356C304.818 441.366 303.259 443.376 301.7 445.385C296.926 451.589 291.958 457.968 287.086 464.085C282.215 470.202 277.539 476.144 272.765 482.085C270.037 485.493 267.601 488.639 264.874 491.96C275.883 498.6 287.184 504.193 299.264 508.999C300.921 504.717 302.479 500.96 304.136 496.591C309.689 482.697 315.437 468.454 321.282 454.473ZM520.515 404.666C512.819 401.87 504.733 398.899 496.939 396.015C494.893 395.229 492.847 394.53 490.898 393.743C489.632 396.277 488.171 398.636 486.709 401.083C488.463 402.219 490.314 403.355 492.068 404.491C498.887 408.86 505.999 413.404 512.721 417.773C519.444 422.142 526.069 426.424 532.596 430.793C536.98 433.676 540.877 436.298 545.066 439.094C549.645 432.191 553.835 425.2 557.537 417.86C552.666 416.2 548.184 414.627 543.215 412.88C535.811 410.171 528.212 407.462 520.515 404.666ZM362.395 458.143C355.965 457.357 349.633 456.221 343.3 454.735C342.618 456.57 341.936 458.667 341.352 460.59C336.481 474.92 331.414 489.338 326.348 503.494C324.79 508.038 323.328 511.882 321.769 516.339C334.24 519.397 346.71 521.582 359.57 522.805C359.765 517.912 359.862 513.543 360.057 508.475C360.642 493.707 361.324 478.503 362.103 463.648C362.201 461.813 362.298 459.978 362.395 458.143Z"
          fill="#EF7C00"/>
    <path d="M265.36 450.888C198.039 401.255 185.764 315.447 240.614 253.581C295.464 191.715 391.33 182.977 460.501 230.687C464.788 233.658 468.782 237.066 472.582 240.212"
          stroke="#EF7C00" stroke-width="73.2029" stroke-miterlimit="10"/>
    <path d="M411.302 271.144C454.948 281.106 498.692 291.067 542.338 301.029C530.063 262.144 517.885 223.26 505.609 184.375C474.238 213.298 442.77 242.221 411.302 271.144Z"
          fill="#EF7C00"/>
</svg>
