<?xml version="1.0" encoding="utf-8"?>
<!-- Generator: Adobe Illustrator 26.5.0, SVG Export Plug-In . SVG Version: 6.00 Build 0)  -->
<svg version="1.1" id="Ebene_1" xmlns="http://www.w3.org/2000/svg" xmlns:xlink="http://www.w3.org/1999/xlink" x="0px" y="0px"
	 viewBox="0 0 2169.7 778.2" style="enable-background:new 0 0 2169.7 778.2;" xml:space="preserve">
<style type="text/css">
	.st0{display:none;}
	.st1{display:inline;opacity:0.6;fill:url(#SVGID_1_);enable-background:new    ;}
	
		.st2{display:inline;opacity:0.75;fill:url(#SVGID_00000168814487181235329660000017442550690750565774_);enable-background:new    ;}
	
		.st3{display:inline;opacity:0.22;fill:url(#SVGID_00000154421267335238936010000013709547346986993316_);enable-background:new    ;}
	
		.st4{display:inline;opacity:0.9;fill:url(#SVGID_00000182490669718540230910000005015677610946042527_);enable-background:new    ;}
	
		.st5{display:inline;opacity:0.6;fill:url(#SVGID_00000152248798168496568020000015437510340724885381_);enable-background:new    ;}
	.st6{fill:#6E6E6E;}
	.st7{fill:#EF7C00;}
	.st8{fill:none;}
	.st9{fill:none;stroke:#EF7C00;stroke-width:55.1398;stroke-miterlimit:10;}
	
		.st10{display:inline;opacity:0.6;fill:url(#SVGID_00000010291159812031721810000017416377707892867752_);enable-background:new    ;}
	
		.st11{display:inline;opacity:0.75;fill:url(#SVGID_00000042010880792291992080000014828175099006012843_);enable-background:new    ;}
	
		.st12{display:inline;opacity:0.22;fill:url(#SVGID_00000003064053394473846160000005284819888032328114_);enable-background:new    ;}
	
		.st13{display:inline;opacity:0.9;fill:url(#SVGID_00000170995348075556362190000016519814999954029196_);enable-background:new    ;}
	
		.st14{display:inline;opacity:0.6;fill:url(#SVGID_00000151513407448070555460000000709317378935143832_);enable-background:new    ;}
	
		.st15{display:inline;opacity:0.6;fill:url(#SVGID_00000147922833425657985770000009993084833104512954_);enable-background:new    ;}
	
		.st16{display:inline;opacity:0.75;fill:url(#SVGID_00000078014987303349583020000010248648762569319829_);enable-background:new    ;}
	
		.st17{display:inline;opacity:0.22;fill:url(#SVGID_00000025422383899794534100000004572602922548071824_);enable-background:new    ;}
	
		.st18{display:inline;opacity:0.9;fill:url(#SVGID_00000003084072472611259760000004979437312423340685_);enable-background:new    ;}
	
		.st19{display:inline;opacity:0.6;fill:url(#SVGID_00000085972891305903486900000007510446427067277963_);enable-background:new    ;}
	.st20{fill:none;stroke:#EF7C00;stroke-width:73.2029;stroke-miterlimit:10;}
</style>
<g>
	<g class="st0">
		
			<radialGradient id="SVGID_1_" cx="1986.475" cy="-538.1" r="314.5" gradientTransform="matrix(1 0 0 1 0 -262)" gradientUnits="userSpaceOnUse">
			<stop  offset="0.2624" style="stop-color:#000000"/>
			<stop  offset="0.4541" style="stop-color:#030303"/>
			<stop  offset="0.5297" style="stop-color:#070707"/>
			<stop  offset="0.7321" style="stop-color:#090909"/>
			<stop  offset="0.8105" style="stop-color:#101010"/>
			<stop  offset="0.8673" style="stop-color:#1C1C1C"/>
			<stop  offset="0.9138" style="stop-color:#2D2D2D"/>
			<stop  offset="0.9539" style="stop-color:#444444"/>
			<stop  offset="0.989" style="stop-color:#5F5F5F"/>
			<stop  offset="1" style="stop-color:#696969"/>
		</radialGradient>
		<circle class="st1" cx="1986.5" cy="-800.1" r="314.5"/>
		
			<radialGradient id="SVGID_00000162352114753100851440000014815438689676935345_" cx="1966.9412" cy="-591.6119" r="352.6598" gradientTransform="matrix(1 0 0 1 0 -262)" gradientUnits="userSpaceOnUse">
			<stop  offset="0.4455" style="stop-color:#000000"/>
			<stop  offset="1" style="stop-color:#858585"/>
		</radialGradient>
		
			<path style="display:inline;opacity:0.75;fill:url(#SVGID_00000162352114753100851440000014815438689676935345_);enable-background:new    ;" d="
			M2028.8-1045.9c87.5,0,167.3,32.4,228.4,85.8c-54.8-92.4-155.5-154.4-270.7-154.4c-173.7,0-314.5,140.8-314.5,314.5
			c0,27.6,3.6,54.4,10.3,79.9C1693.4-901.9,1844.2-1045.9,2028.8-1045.9z"/>
		
			<radialGradient id="SVGID_00000053536609292621677030000006755222986368207284_" cx="1811.2106" cy="-2823.3787" r="352.6489" gradientTransform="matrix(0.979 -0.204 -0.204 -0.979 -370.4884 -3138.323)" gradientUnits="userSpaceOnUse">
			<stop  offset="0.4455" style="stop-color:#000000"/>
			<stop  offset="1" style="stop-color:#858585"/>
		</radialGradient>
		
			<path style="display:inline;opacity:0.22;fill:url(#SVGID_00000053536609292621677030000006755222986368207284_);enable-background:new    ;" d="
			M2078.4-568.1c85.6-17.8,157.2-65.9,206.1-130.6c-34.8,101.7-120.7,183-233.5,206.5c-170,35.4-336.6-73.7-372-243.7
			c-5.6-27-7.6-53.9-6.2-80.3C1720.7-640.6,1897.7-530.4,2078.4-568.1z"/>
		
			<linearGradient id="SVGID_00000045596943424146333880000005185156914605057157_" gradientUnits="userSpaceOnUse" x1="1744.0236" y1="-780.6514" x2="2089.9805" y2="-434.6946" gradientTransform="matrix(1 0 0 1 0 -262)">
			<stop  offset="0.1535" style="stop-color:#FFFFFF"/>
			<stop  offset="0.9307" style="stop-color:#000000"/>
		</linearGradient>
		
			<path style="display:inline;opacity:0.9;fill:url(#SVGID_00000045596943424146333880000005185156914605057157_);enable-background:new    ;" d="
			M1672.1-800.1c0-173.7,140.8-314.5,314.5-314.5c122.9,0,229.2,70.5,281,173.3c-50.8-107.4-160.1-181.7-286.8-181.7
			c-175.2,0-317.1,142-317.1,317.1c0,126.7,74.3,236,181.7,286.8C1742.6-570.8,1672.1-677.2,1672.1-800.1z"/>
		
			<linearGradient id="SVGID_00000178898461059630402110000008661322947872735128_" gradientUnits="userSpaceOnUse" x1="-938.631" y1="-2558.197" x2="-592.674" y2="-2212.24" gradientTransform="matrix(-1 0 0 -1 1290.488 -3115.6531)">
			<stop  offset="0.1634" style="stop-color:#000000"/>
			<stop  offset="1" style="stop-color:#FFFFFF"/>
		</linearGradient>
		
			<path style="display:inline;opacity:0.6;fill:url(#SVGID_00000178898461059630402110000008661322947872735128_);enable-background:new    ;" d="
			M2301.1-800c0,173.7-140.8,314.5-314.5,314.5c-122.9,0-229.2-70.5-281-173.3c50.8,107.4,160.1,181.7,286.8,181.7
			c175.2,0,317.1-142,317.1-317.1c0-126.7-74.3-236-181.7-286.8C2230.6-1029.3,2301.1-922.9,2301.1-800z"/>
	</g>
</g>
<g>
	<g>
		<path class="st6" d="M1035.2,526.3V294.3h-90.9v-33.1H1165v33.1h-90.5v232.1H1035.2z"/>
		<path class="st6" d="M1422.9,526.3h-48.3c-41.8-73.4-71.5-108-90.2-108h-43.4v108h-38.4V261.2h128.2c57.4,0,74.2,35.4,74.2,77.2
			c0,37.3-17.5,70.4-73,71.1C1350.6,416,1379.5,454,1422.9,526.3z M1241.1,385.6h82.2c25.1,0,38.8-16.4,38.8-44.5
			c0-30.8-13.3-47.2-37.3-47.2h-83.7V385.6z"/>
		<path class="st6" d="M1616.5,452.5h-122.9c-8.4,25.1-16.4,49.8-24,73.8h-39.9c27.8-83.7,63.5-181.1,98.2-265.2h62.8
			c28.5,87.5,67,193.3,97.8,265.2h-43.4C1636.3,504.3,1626,479.2,1616.5,452.5z M1552.2,293.1c-16.4,40.7-32.3,83.3-47.6,126.3
			h100.4c-15.2-41.8-29.7-86-42.2-126.3H1552.2z"/>
		<path class="st6" d="M1831.1,254.7c24,0,54.8,4.2,74.9,9.9l-9.5,34.6c-15.2-5.7-41.5-9.1-60.9-9.1c-62.4,0-85.6,12.2-85.6,101.6
			c0,89,23.2,104.2,85.6,104.2c19.4,0,45.7-3.4,60.9-8.7l9.5,34.6c-20.5,6.1-51,9.9-74.9,9.9c-83.3,0-122.9-32.3-122.9-140.4
			C1708.2,282.8,1747.8,254.7,1831.1,254.7z"/>
		<path class="st6" d="M2136.2,261.2v33.1h-148.4v75.3h105.4v32.7h-105.4v90.9h148.4v33.1h-186.8V261.2H2136.2z"/>
	</g>
	<g>
		<path class="st6" d="M388,651.9h-0.3c-144.7-0.1-261.8-117.4-261.8-262s117.2-261.9,261.8-262h0.3c0.3,0,0.7,0,1.1,0V0
			c-22,0-44.1,1.9-65.8,5.6v74.7c-38.9,8.1-76,23.5-109.1,45.4l-52.3-52.4c-35,25.2-65.5,56-90.4,91.2l52.1,52.1
			c-21.9,33.2-37.2,70.2-45.2,109.1H5.2c-7,42.5-6.9,85.9,0.3,128.4h72.9c8.1,38.9,23.3,75.9,45.2,109L72,614.6
			c25,35.1,55.6,65.8,90.7,90.9l51.6-51.6c33.2,21.9,70.2,37.3,109.1,45.4v73.3c21.7,3.8,43.7,5.6,65.8,5.6V651.8
			C388.7,651.8,388.4,651.8,388,651.9"/>
		<path class="st6" d="M363.9,690.8C548.4,690.8,698,560.6,698,400S548.4,109.3,363.9,109.3c-1.9,0-3.8,0.1-5.7,0.1
			c149.7,4.5,269.6,132.6,269.6,290.2C627.8,560,503.5,690,350.2,690"/>
	</g>
	<g>
		<path class="st7" d="M826.2,525.7c-21,0-37.5-6.2-49.2-18.4c-11.9-12.2-17.8-29-17.8-50.7c0-22.1,5.5-39.4,16.5-52.1
			c10.9-12.5,26.1-18.9,45.2-18.9c17.8,0,31.9,5.4,42.2,16.2s15.6,25.7,15.6,44.8v15.6h-90c0.5,13.2,4,23.2,10.6,30.1
			c6.7,7,16,10.6,28.2,10.6c7.9,0,15.4-0.8,22.2-2.2s14.3-4,22.2-7.4v23.4c-7,3.3-14.1,5.7-21.3,7.1
			C843.6,525.1,835.4,525.7,826.2,525.7z M820.9,407.4c-9,0-16.4,2.8-21.9,8.7c-5.5,5.7-8.7,14.1-9.8,25.3h61.3
			c-0.1-11.1-2.8-19.5-8.1-25.4C837.3,410.5,830.1,407.4,820.9,407.4z"/>
		<path class="st7" d="M979.8,385.7c5.7,0,10.5,0.5,14.3,1.2l-2.8,26.7c-4.1-0.9-8.2-1.4-12.7-1.4c-11.4,0-20.8,3.8-28,11.3
			c-7.1,7.5-10.6,17.1-10.6,29.2v70.6h-28.7v-135h22.6l3.8,23.8h1.4c4.4-8.1,10.3-14.4,17.5-19.2
			C963.8,388.1,971.6,385.7,979.8,385.7z"/>
	</g>
	<g>
		<path class="st8" d="M158.2,561.7"/>
	</g>
	<path class="st9" d="M394,512.9"/>
	<g>
		<g>
			<g class="st0">
				
					<radialGradient id="SVGID_00000142885205067984778260000014446807077466540160_" cx="-795.4711" cy="736.4213" r="227.0872" gradientTransform="matrix(0.5949 -0.8038 0.8038 0.5949 204.1414 -497.843)" gradientUnits="userSpaceOnUse">
					<stop  offset="0.2624" style="stop-color:#000000"/>
					<stop  offset="0.4541" style="stop-color:#030303"/>
					<stop  offset="0.5297" style="stop-color:#070707"/>
					<stop  offset="0.7321" style="stop-color:#090909"/>
					<stop  offset="0.8105" style="stop-color:#101010"/>
					<stop  offset="0.8673" style="stop-color:#1C1C1C"/>
					<stop  offset="0.9138" style="stop-color:#2D2D2D"/>
					<stop  offset="0.9539" style="stop-color:#444444"/>
					<stop  offset="0.989" style="stop-color:#5F5F5F"/>
					<stop  offset="1" style="stop-color:#696969"/>
				</radialGradient>
				
					<path style="display:inline;opacity:0.6;fill:url(#SVGID_00000142885205067984778260000014446807077466540160_);enable-background:new    ;" d="
					M322.5,352.3c124.4,0.3,227,102.1,227.5,227.3s-99.8,226.6-226.7,226.2S97,705.9,96.5,579S198,351.9,322.5,352.3z"/>
				
					<radialGradient id="SVGID_00000052820204077553974730000008685957166954755243_" cx="-808.4366" cy="697.7026" r="254.8732" gradientTransform="matrix(0.5949 -0.8038 0.8038 0.5949 204.1414 -497.843)" gradientUnits="userSpaceOnUse">
					<stop  offset="0.4455" style="stop-color:#000000"/>
					<stop  offset="1" style="stop-color:#858585"/>
				</radialGradient>
				
					<path style="display:inline;opacity:0.75;fill:url(#SVGID_00000052820204077553974730000008685957166954755243_);enable-background:new    ;" d="
					M198.5,449.2c37.1-51.1,88.5-81.5,148.3-96.8c-80.5-5.3-157.3,24.8-206.4,92.1c-73.9,101.4-54.1,240.9,47.6,317
					c16.1,12.1,32.5,21,50.8,28.5C136.8,702.7,120.3,557,198.5,449.2z"/>
				
					<radialGradient id="SVGID_00000142859953875231060290000005508971003943163299_" cx="-1165.5972" cy="-3488.731" r="254.8611" gradientTransform="matrix(0.4185 -0.9083 -0.9083 -0.4185 -2328.2031 -1911.2838)" gradientUnits="userSpaceOnUse">
					<stop  offset="0.4455" style="stop-color:#000000"/>
					<stop  offset="1" style="stop-color:#858585"/>
				</radialGradient>
				
					<path style="display:inline;opacity:0.22;fill:url(#SVGID_00000142859953875231060290000005508971003943163299_);enable-background:new    ;" d="
					M497.2,625.7c27-57.1,28.9-116.8,13.6-176.6c43.4,68.1,53.9,149.9,18.5,225.2C476,787.9,344,837.6,228.4,785
					c-18.4-8.3-34-18.5-49.4-30.8C304.8,801.7,440.3,746.1,497.2,625.7z"/>
				
					<linearGradient id="SVGID_00000152222005799121153300000017527806058581841058_" gradientUnits="userSpaceOnUse" x1="-969.9227" y1="560.9872" x2="-719.6784" y2="811.2317" gradientTransform="matrix(0.5949 -0.8038 0.8038 0.5949 204.1414 -497.843)">
					<stop  offset="0.1535" style="stop-color:#FFFFFF"/>
					<stop  offset="0.9307" style="stop-color:#000000"/>
				</linearGradient>
				
					<path style="display:inline;opacity:0.9;fill:url(#SVGID_00000152222005799121153300000017527806058581841058_);enable-background:new    ;" d="
					M187.7,761C87.1,686.3,66.1,545.3,140.4,444.4c52.6-71.4,136.3-101.7,221.8-90c-87.8-14.4-175,16.1-229.2,89.7
					C58,545.8,79.2,688,180.7,763.4c73.3,54.5,165.6,58.2,245.4,18.9C347.8,818.4,258.9,813.8,187.7,761z"/>
				
					<linearGradient id="SVGID_00000011023031484694891210000007442515477493044102_" gradientUnits="userSpaceOnUse" x1="1908.1259" y1="-3764.9783" x2="2158.8684" y2="-3514.2361" gradientTransform="matrix(-0.5949 0.8038 -0.8038 -0.5949 -1321.7905 -3232.7632)">
					<stop  offset="0.1634" style="stop-color:#000000"/>
					<stop  offset="1" style="stop-color:#FFFFFF"/>
				</linearGradient>
				
					<path style="display:inline;opacity:0.6;fill:url(#SVGID_00000011023031484694891210000007442515477493044102_);enable-background:new    ;" d="
					M455.6,404c109.1,69.4,124,207.7,50.7,309.3c-51.9,71.9-136.8,101.5-221.6,90.1c87.1,14.1,175.5-16,228.9-89.7
					c73.9-101.9,59-242.2-51.1-312.5c-79.6-50.8-141.2-78.7-241.2-25.3C320.6,325.6,378.4,354.9,455.6,404z"/>
			</g>
			<g>
				<g class="st0">
					
						<radialGradient id="SVGID_00000004513112000827976560000012916819501637058964_" cx="-602.7717" cy="675.283" r="262.7427" gradientTransform="matrix(0.5949 -0.8038 0.8038 0.5949 204.1414 -497.843)" gradientUnits="userSpaceOnUse">
						<stop  offset="0.2624" style="stop-color:#000000"/>
						<stop  offset="0.4541" style="stop-color:#030303"/>
						<stop  offset="0.5297" style="stop-color:#070707"/>
						<stop  offset="0.7321" style="stop-color:#090909"/>
						<stop  offset="0.8105" style="stop-color:#101010"/>
						<stop  offset="0.8673" style="stop-color:#1C1C1C"/>
						<stop  offset="0.9138" style="stop-color:#2D2D2D"/>
						<stop  offset="0.9539" style="stop-color:#444444"/>
						<stop  offset="0.989" style="stop-color:#5F5F5F"/>
						<stop  offset="1" style="stop-color:#696969"/>
					</radialGradient>
					
						<path style="display:inline;opacity:0.6;fill:url(#SVGID_00000004513112000827976560000012916819501637058964_);enable-background:new    ;" d="
						M390.2,127.7c152.3,0.6,247.3,110.5,256.6,256.5S534.3,651.1,388.2,650.5S125.7,535.3,127,389
						C128.3,242.7,237.8,127,390.2,127.7z"/>
					
						<radialGradient id="SVGID_00000077306928572869350740000018087768198948844933_" cx="-619.232" cy="630.8054" r="293.8607" gradientTransform="matrix(0.5949 -0.8038 0.8038 0.5949 204.1414 -497.843)" gradientUnits="userSpaceOnUse">
						<stop  offset="0.4455" style="stop-color:#000000"/>
						<stop  offset="1" style="stop-color:#858585"/>
					</radialGradient>
					
						<path style="display:inline;opacity:0.75;fill:url(#SVGID_00000077306928572869350740000018087768198948844933_);enable-background:new    ;" d="
						M244.2,239.4c42.7-58.9,102.1-94.2,171-111.7c-92.9-6.1-181.4,28.7-238,106.2C91.8,350.7,115,511.6,232.1,599.4
						c18.6,14,37.5,24.4,58.7,32.8C173,531.5,154.1,363.6,244.2,239.4z"/>
					
						<radialGradient id="SVGID_00000140730525718114306980000013760575093084597634_" cx="-967.9147" cy="-3473.9468" r="293.8247" gradientTransform="matrix(0.4185 -0.9083 -0.9083 -0.4185 -2328.2031 -1911.2838)" gradientUnits="userSpaceOnUse">
						<stop  offset="0.4455" style="stop-color:#000000"/>
						<stop  offset="1" style="stop-color:#858585"/>
					</radialGradient>
					
						<path style="display:inline;opacity:0.22;fill:url(#SVGID_00000140730525718114306980000013760575093084597634_);enable-background:new    ;" d="
						M589.6,440.9c26-67.4,33.8-130,14.7-201.8c47.4,75.3,61.6,174,21.2,260.1C564.7,629,411.8,687.4,278.8,626.4
						c-21.1-9.7-39.5-21-57.1-35.4C358.8,642.3,534.6,583.2,589.6,440.9z"/>
					
						<linearGradient id="SVGID_00000017486131164934485410000011360681583224503972_" gradientUnits="userSpaceOnUse" x1="-805.4646" y1="473.0962" x2="-516.9252" y2="761.6355" gradientTransform="matrix(0.5949 -0.8038 0.8038 0.5949 204.1414 -497.843)">
						<stop  offset="0.1535" style="stop-color:#FFFFFF"/>
						<stop  offset="0.9307" style="stop-color:#000000"/>
					</linearGradient>
					
						<path style="display:inline;opacity:0.9;fill:url(#SVGID_00000017486131164934485410000011360681583224503972_);enable-background:new    ;" d="
						M231.8,598.7c-116-86.2-140.2-248.7-54.5-365C238,151.4,334.5,116.4,433,130c-102.4-17.2-201.2,17.7-264,103.2
						C82.2,351.4,106.5,514,224,601.6c85,63.3,189.7,68,282.6,21.6C416.4,665.1,313.8,659.7,231.8,598.7z"/>
					
						<linearGradient id="SVGID_00000182502015154942309760000016812000569858850477_" gradientUnits="userSpaceOnUse" x1="1692.3994" y1="-3730.4019" x2="1979.791" y2="-3443.0103" gradientTransform="matrix(-0.5949 0.8038 -0.8038 -0.5949 -1321.7905 -3232.7632)">
						<stop  offset="0.1634" style="stop-color:#000000"/>
						<stop  offset="1" style="stop-color:#FFFFFF"/>
					</linearGradient>
					
						<path style="display:inline;opacity:0.6;fill:url(#SVGID_00000182502015154942309760000016812000569858850477_);enable-background:new    ;" d="
						M544.4,178.7C658.9,264.1,683.6,429,599,544.1c-59.9,81.5-157.5,117.5-255.4,103.4c101.7,17.8,201.7-18.2,263.6-102.8
						c85.6-117,61-282-55.1-368.8C468.2,113.1,362,107.8,270,154.6C359.4,112.3,463.4,118.3,544.4,178.7z"/>
				</g>
				<g>
					<path class="st7" d="M411.4,522.9c-6,1.1-11.9,1.8-18,2.1c0,1.9,0.1,3.9,0.1,5.8c0.3,17.1,0.3,34.4,0.3,51.3
						c0,5.9,0,10.9,0,16.7c12.5-0.6,24.8-2.1,37.1-4.6c-1.6-5.7-3-10.7-4.6-16.5c-4.5-16.3-9.1-33.1-13.5-49.5
						C412.3,526.5,411.9,524.7,411.4,522.9z M437.8,520.7c5.5,16.2,10.9,32.6,16.1,48.8c1.8,5.7,3.4,10.7,5.2,16.3
						c11-4.3,21.4-9.4,31.6-15.3c-3.3-5-6.2-9.3-9.6-14.5c-9.3-14.1-18.7-28.8-27.9-43.1c-0.9-1.4-1.8-3-2.8-4.4
						c-4.7,2.6-9.5,4.9-14.5,7C436.6,517.1,437.2,519,437.8,520.7z M474.8,498.2c10.1,13.7,20.3,27.8,30.2,41.5
						c3.5,4.9,6.5,9,9.8,13.9c8.1-6.7,15.6-13.9,22.7-21.6c-4.4-3.5-8.4-6.9-12.8-10.5c-6.5-5.3-12.9-10.7-19.5-16.1
						s-13.4-11.2-20-16.8c-1.5-1.3-3-2.5-4.4-3.8c-2.9,3.1-6,6.1-9.2,8.9C472.6,495.2,473.7,496.8,474.8,498.2z M548.1,418.8
						c-8.6-0.1-17.4-0.2-26.1-0.4c-2.7-0.1-5.5-0.1-8.2-0.2c-0.2,2-0.3,3.9-0.6,5.9c2.6,0.6,5.2,1.2,7.8,1.9
						c8.4,2,17.1,4.1,25.4,6.2c8.3,2.1,16.4,4.1,24.5,6.2c5,1.3,9.5,2.5,14.4,3.8c1.2-7.8,2-15.5,2.5-23.4c-4.8,0.1-9.3,0-14.2,0
						C565.1,418.9,556.6,418.9,548.1,418.8z M329.8,520.1c0.9-2.3,1.8-4.8,2.7-7.1c-6.3-3-12.2-6.4-18-10.2
						c-1.6,2.3-3.2,4.6-4.8,6.9c-4.9,7.1-10,14.4-15,21.4s-9.8,13.8-14.7,20.6c-2.8,3.9-5.3,7.5-8.1,11.3
						c11.3,7.6,22.9,14,35.3,19.5c1.7-4.9,3.3-9.2,5-14.2C317.9,552.4,323.8,536.1,329.8,520.1z M534.3,463.1
						c-7.9-3.2-16.2-6.6-24.2-9.9c-2.1-0.9-4.2-1.7-6.2-2.6c-1.3,2.9-2.8,5.6-4.3,8.4c1.8,1.3,3.7,2.6,5.5,3.9
						c7,5,14.3,10.2,21.2,15.2S540,488,546.7,493c4.5,3.3,8.5,6.3,12.8,9.5c4.7-7.9,9-15.9,12.8-24.3c-5-1.9-9.6-3.7-14.7-5.7
						C550,469.4,542.2,466.3,534.3,463.1z M372,524.3c-6.6-0.9-13.1-2.2-19.6-3.9c-0.7,2.1-1.4,4.5-2,6.7
						c-5,16.4-10.2,32.9-15.4,49.1c-1.6,5.2-3.1,9.6-4.7,14.7c12.8,3.5,25.6,6,38.8,7.4c0.2-5.6,0.3-10.6,0.5-16.4
						c0.6-16.9,1.3-34.3,2.1-51.3C371.8,528.5,371.9,526.4,372,524.3z"/>
				</g>
			</g>
		</g>
		<g>
			<g>
				<path class="st20" d="M272.4,516c-69.1-56.8-81.7-155-25.4-225.8s154.7-80.8,225.7-26.2c4.4,3.4,8.5,7.3,12.4,10.9"/>
				<g>
					<path class="st7" d="M422.2,310.3c44.8,11.4,89.7,22.8,134.5,34.2c-12.6-44.5-25.1-89-37.7-133.5
						C486.8,244.1,454.5,277.2,422.2,310.3z"/>
				</g>
			</g>
		</g>
	</g>
</g>
</svg>
